<?xml version="1.0" standalone="no"?>
<!DOCTYPE svg PUBLIC "-//W3C//DTD SVG 20010904//EN"
 "http://www.w3.org/TR/2001/REC-SVG-20010904/DTD/svg10.dtd">
<svg version="1.0" xmlns="http://www.w3.org/2000/svg"
 width="350.000000pt" height="350.000000pt" viewBox="0 0 350.000000 350.000000"
 preserveAspectRatio="xMidYMid meet">
<metadata>
Created by potrace 1.14, written by Peter Selinger 2001-2017
</metadata>
<g transform="translate(0.000000,350.000000) scale(0.100000,-0.100000)"
fill="#000000" stroke="none">
<path d="M598 3492 c-43 -1 -78 -7 -78 -12 0 -18 180 -15 193 3 6 9 10 9 14 0
2 -7 16 -13 29 -13 14 0 23 -4 20 -9 -3 -5 10 -8 29 -6 39 2 40 2 23 -28 -6
-12 -12 -30 -13 -39 -1 -10 -11 -26 -22 -35 -26 -23 -32 -43 -22 -70 5 -13 5
-23 0 -23 -5 0 -12 -17 -16 -37 -4 -21 -11 -43 -17 -50 -5 -7 -6 -22 -2 -35 4
-13 7 -30 5 -37 -2 -8 4 -20 11 -25 17 -13 34 -101 18 -91 -13 8 -13 -16 1
-35 9 -13 10 -12 5 3 -3 9 -1 17 4 17 6 0 10 -9 10 -20 0 -17 7 -20 48 -21 43
0 45 -1 22 -11 -21 -9 -22 -12 -7 -15 10 -3 24 1 32 7 12 10 18 10 30 0 19
-16 35 -4 35 26 0 34 15 30 30 -8 8 -18 18 -39 24 -47 5 -7 11 -19 12 -26 1
-7 7 -21 14 -32 10 -16 11 -15 6 7 -13 70 -18 160 -7 160 15 0 37 -48 45 -99
8 -55 23 -82 40 -75 8 3 17 0 21 -5 7 -13 25 -5 25 10 0 6 -5 7 -10 4 -6 -3
-10 -1 -10 4 0 6 5 11 10 11 6 0 10 16 10 36 0 20 10 57 22 81 l22 44 18 -35
c10 -20 23 -36 28 -36 6 0 10 -5 10 -10 0 -6 16 -26 35 -45 l34 -35 -27 -2
c-15 0 -38 0 -52 1 -24 2 -24 2 -6 -18 14 -15 31 -21 63 -21 23 0 43 -4 43 -9
0 -10 50 -25 57 -17 7 6 -39 66 -47 61 -4 -2 -7 2 -7 10 0 8 3 15 7 15 4 0 5
12 3 28 -4 24 -2 22 29 -18 41 -56 200 -210 235 -228 35 -19 93 -78 93 -96 0
-21 21 -31 31 -15 7 11 9 10 9 -3 0 -10 5 -18 10 -18 6 0 10 -5 10 -11 0 -6
18 -31 40 -56 22 -25 37 -50 33 -56 -3 -6 -1 -7 5 -3 9 5 7 15 -5 34 l-17 27
27 -24 c14 -13 24 -27 22 -32 -3 -4 15 -24 39 -45 41 -34 43 -39 33 -63 -6
-14 -32 -48 -57 -76 -26 -27 -46 -56 -44 -62 1 -7 2 -19 3 -25 1 -9 4 -9 11 2
5 9 5 19 -2 27 -7 9 -7 13 1 13 18 0 26 -4 23 -12 -1 -5 4 -8 10 -8 9 0 8 -4
-2 -11 -13 -9 -13 -10 0 -6 8 2 15 10 15 18 1 8 6 13 13 11 7 -1 22 13 33 30
12 18 18 24 15 13 -5 -16 -1 -14 19 8 14 15 25 37 25 48 0 25 9 24 43 -6 24
-21 28 -30 22 -58 -5 -25 -4 -29 5 -17 9 12 11 10 7 -12 -3 -17 1 -29 10 -33
9 -3 13 0 10 7 -4 14 26 65 51 85 8 7 27 10 42 6 15 -3 31 0 34 6 4 6 19 11
34 11 23 0 32 -10 67 -75 37 -70 101 -149 93 -116 -2 8 6 17 17 19 11 2 17 1
13 -3 -3 -4 0 -22 8 -41 8 -18 13 -37 12 -41 -3 -8 5 -13 22 -13 6 0 10 5 10
10 0 6 9 19 21 31 13 13 18 26 13 37 -4 9 -7 27 -7 39 1 13 -3 20 -8 17 -5 -3
-9 2 -9 10 0 9 5 16 11 16 5 0 8 4 5 9 -3 5 1 11 9 15 8 3 15 10 15 16 0 6 -4
9 -8 6 -4 -2 -8 4 -8 14 0 21 3 20 68 -39 37 -33 49 -18 15 17 -15 16 -27 33
-27 39 0 14 128 6 186 -12 12 -4 24 -3 27 2 4 6 49 8 102 6 53 -2 95 1 95 6 0
15 -52 28 -108 26 -29 -1 -54 1 -57 5 -2 4 -48 8 -102 9 -54 1 -102 6 -107 11
-7 7 61 10 187 10 170 0 197 2 197 15 0 25 -36 32 -205 39 -88 4 -162 10 -164
12 -3 2 0 9 7 16 8 8 15 8 27 -2 17 -14 19 -7 5 21 -7 13 -7 19 0 19 5 0 10
-6 10 -14 0 -7 8 -16 18 -18 15 -4 18 1 17 33 0 35 -3 39 -25 39 -14 0 -40 4
-57 9 -22 7 -35 6 -39 -1 -5 -7 -2 -8 6 -3 10 6 12 4 7 -7 -4 -12 0 -15 16
-11 18 4 19 3 7 -6 -13 -9 -12 -11 5 -12 11 0 14 -3 8 -6 -7 -2 -13 -12 -13
-21 0 -9 -16 9 -35 41 -19 32 -35 67 -35 78 0 10 -4 19 -8 19 -9 0 -7 184 2
199 4 5 15 7 26 3 24 -9 140 -3 140 7 0 5 -24 11 -52 14 -52 6 -111 16 -114
20 -1 1 3 31 8 67 5 36 7 98 4 138 -5 56 -3 73 7 70 6 -3 14 -15 15 -29 2 -13
8 -28 14 -34 8 -7 9 -6 4 3 -4 6 -2 12 4 12 6 0 8 6 4 13 -4 6 5 1 19 -12 15
-14 27 -30 27 -36 0 -7 10 -20 22 -31 l22 -19 -18 28 c-9 16 -15 35 -12 43 4
10 2 12 -5 8 -8 -5 -10 4 -7 27 3 19 1 47 -3 63 -6 22 -4 36 7 54 9 13 13 26
10 30 -3 3 -6 0 -6 -6 0 -7 -4 -12 -10 -12 -5 0 -10 12 -10 28 0 18 3 23 9 14
7 -11 10 -10 15 3 9 23 9 23 -16 27 -19 2 -24 10 -26 46 -3 43 4 52 27 30 15
-16 -9 42 -60 145 l-39 78 -958 -3 c-526 -1 -992 -4 -1034 -6z m922 -42 c0 -5
-4 -10 -10 -10 -5 0 -10 5 -10 10 0 6 5 10 10 10 6 0 10 -4 10 -10z m1030
-290 c0 -5 -2 -10 -4 -10 -3 0 -8 5 -11 10 -3 6 -1 10 4 10 6 0 11 -4 11 -10z
m10 -40 c0 -5 -5 -10 -11 -10 -5 0 -7 5 -4 10 3 6 8 10 11 10 2 0 4 -4 4 -10z
m-444 -33 c-5 9 -2 11 9 7 25 -10 32 -35 30 -117 -2 -70 -5 -81 -33 -117 -31
-38 -40 -56 -23 -46 4 3 0 -19 -10 -49 -18 -55 -18 -55 4 -91 12 -20 37 -54
56 -75 31 -37 33 -42 21 -65 -12 -21 -11 -29 3 -53 18 -30 24 -57 7 -31 -8 13
-10 13 -10 -1 0 -9 7 -22 15 -29 16 -13 21 -50 6 -50 -9 0 -24 -38 -22 -57 4
-31 -110 -13 -175 28 -18 11 -39 17 -45 13 -7 -4 -9 -3 -6 3 3 5 -10 25 -30
44 -21 19 -31 25 -23 14 14 -18 14 -19 -2 -7 -10 8 -14 20 -11 29 5 12 3 14
-7 8 -8 -5 -11 -4 -6 3 7 11 -22 82 -38 94 -5 3 -10 27 -11 52 -1 42 1 45 21
40 27 -7 40 11 24 31 -16 19 -40 19 -40 0 0 -8 -4 -15 -9 -15 -4 0 -7 17 -5
38 14 147 53 240 137 330 73 76 90 81 138 37 49 -44 74 -46 31 -2 -32 32 -34
59 -4 34 13 -9 14 -9 8 0z m434 -162 c0 -5 -5 -3 -10 5 -5 8 -10 20 -10 25 0
6 5 3 10 -5 5 -8 10 -19 10 -25z m-4 -82 c-10 -10 -19 5 -10 18 6 11 8 11 12
0 2 -7 1 -15 -2 -18z m-903 -147 c26 -30 47 -57 47 -60 0 -16 -22 -2 -61 38
-52 54 -65 76 -46 76 7 0 34 -24 60 -54z m871 -56 c21 0 21 -51 1 -90 -9 -17
-13 -30 -10 -30 10 0 -56 -94 -79 -112 -30 -25 -48 -23 -41 5 6 23 -7 118 -19
149 -5 11 8 31 46 68 52 51 53 51 69 31 10 -12 24 -21 33 -21z m-119 10 c3 -5
-1 -10 -10 -10 -9 0 -13 5 -10 10 3 6 8 10 10 10 2 0 7 -4 10 -10z m-214 -41
c11 -11 18 -23 16 -26 -8 -8 -57 28 -51 38 8 13 12 11 35 -12z m34 -119 c-3
-5 -11 -10 -16 -10 -6 0 -7 5 -4 10 3 6 11 10 16 10 6 0 7 -4 4 -10z m395 -97
c10 -12 23 -31 30 -42 9 -18 8 -21 -10 -21 -11 0 -20 4 -20 9 0 5 -8 8 -17 7
-14 -1 -17 5 -15 27 2 16 -1 27 -5 24 -4 -3 -9 9 -10 26 -2 31 -1 31 13 12 8
-11 23 -30 34 -42z m-694 -192 c-8 -12 19 -33 29 -23 5 4 5 1 1 -6 -6 -10 -11
-10 -22 -1 -8 6 -14 8 -14 5 0 -4 -5 -4 -10 -1 -8 5 -7 11 1 21 13 15 23 19
15 5z m609 -171 c3 -5 2 -10 -4 -10 -5 0 -13 5 -16 10 -3 6 -2 10 4 10 5 0 13
-4 16 -10z"/>
<path d="M1950 2680 c0 -12 76 -14 84 -2 3 5 -15 9 -40 11 -25 1 -44 -2 -44
-9z"/>
<path d="M7 3473 c-4 -3 -7 -15 -7 -26 0 -14 4 -17 18 -12 9 4 56 10 105 13
48 2 87 8 87 12 0 13 -191 26 -203 13z"/>
<path d="M275 3470 c3 -6 44 -10 91 -10 49 0 83 4 79 9 -3 5 -44 10 -91 10
-53 0 -83 -3 -79 -9z"/>
<path d="M3484 3169 c-3 -6 -1 -16 5 -22 8 -8 11 -5 11 11 0 24 -5 28 -16 11z"/>
<path d="M0 3130 c0 -17 4 -18 26 -10 14 6 37 10 51 10 39 0 25 6 -29 13 -43
6 -48 5 -48 -13z"/>
<path d="M3455 3093 c5 -22 4 -25 -6 -16 -11 11 -22 3 -68 -53 -9 -12 -83
-117 -125 -179 -15 -22 -48 -61 -72 -87 l-45 -48 -97 7 c-127 8 -233 6 -244
-5 -5 -5 34 -12 93 -16 56 -3 108 -11 116 -17 7 -6 19 -9 28 -6 17 7 34 -19
28 -43 -3 -10 0 -21 6 -24 6 -4 11 -2 11 4 0 6 5 8 10 5 6 -3 10 0 10 7 0 32
33 -24 37 -64 6 -56 6 -52 -2 -132 -7 -79 -28 -120 -56 -111 -13 5 -19 1 -19
-10 0 -17 18 -56 30 -65 21 -17 47 -94 46 -142 -1 -51 -2 -52 -36 -59 -19 -4
-42 -3 -52 2 -10 6 -19 5 -23 -1 -4 -6 -37 -9 -80 -7 -41 1 -69 -1 -62 -5 7
-4 8 -8 2 -9 -22 -1 32 -18 62 -18 17 -1 34 -5 38 -10 7 -12 -79 -26 -95 -16
-6 4 -64 4 -130 0 l-119 -7 16 -24 c12 -18 13 -27 4 -38 -9 -11 -5 -15 24 -18
20 -2 39 0 42 5 3 6 1 7 -5 3 -7 -4 -12 -4 -12 1 0 4 69 9 153 11 l152 4 18
-31 c10 -17 25 -31 34 -31 9 0 27 -10 41 -22 l23 -23 -4 43 c-4 44 0 51 32 57
10 2 30 15 45 29 25 26 28 26 108 20 46 -4 87 -10 91 -14 9 -8 17 -136 20
-359 3 -141 5 -164 20 -173 10 -5 17 -20 16 -36 l-1 -27 -8 25 c-8 24 -8 23
-9 -7 -1 -18 4 -33 9 -33 6 0 10 -30 10 -71 0 -38 -4 -68 -9 -65 -5 3 -9 -33
-10 -80 -1 -48 -3 -90 -6 -94 -3 -5 -6 -34 -6 -66 -2 -59 -15 -82 -65 -110
-17 -10 -17 -13 -5 -30 8 -10 3 -7 -11 7 -15 15 -38 50 -53 78 -14 29 -50 76
-78 104 -42 42 -59 53 -91 55 -55 4 -171 -15 -235 -39 -57 -21 -115 -19 -93 3
8 8 4 19 -13 40 -14 16 -25 36 -25 43 0 7 21 32 46 54 44 38 66 46 122 43 12
0 22 5 22 13 0 28 -61 29 -157 2 -29 -9 -53 -12 -53 -8 0 4 18 27 41 52 22 24
47 54 56 67 17 24 43 30 43 8 0 -7 6 -19 14 -25 11 -10 14 -7 12 14 0 14 -3
25 -6 25 -3 0 -6 9 -7 20 -2 22 16 26 45 11 9 -5 25 -12 35 -15 12 -4 17 -16
17 -41 0 -19 -5 -35 -10 -35 -6 0 -4 -14 5 -31 9 -17 14 -37 11 -45 -3 -7 -1
-13 3 -11 5 1 22 -9 37 -23 61 -53 124 -101 124 -96 0 3 -21 33 -47 67 -72 92
-82 110 -89 160 -8 62 -11 66 -80 92 -43 17 -58 28 -56 40 2 9 -2 27 -9 38
-10 20 -12 21 -21 5 -5 -9 -7 -24 -4 -31 3 -8 1 -17 -5 -20 -5 -4 -7 -10 -5
-14 7 -10 -166 -177 -180 -173 -17 4 -98 -74 -90 -87 4 -6 -1 -23 -12 -39 -11
-15 -22 -37 -26 -49 -4 -12 -34 -62 -66 -112 -33 -50 -60 -93 -60 -96 0 -4
-11 -21 -24 -38 -13 -18 -27 -42 -30 -53 -4 -12 -15 -29 -26 -39 -11 -10 -20
-22 -20 -28 0 -5 -8 -21 -18 -35 -23 -33 -56 -120 -72 -186 -9 -39 -21 -58
-57 -90 -60 -54 -146 -101 -163 -91 -4 3 -6 -5 -4 -17 2 -13 2 -17 -2 -10 -4
8 -28 -8 -72 -50 -37 -34 -66 -66 -64 -70 1 -4 -1 -7 -5 -6 -5 1 -21 -5 -36
-12 -20 -10 -24 -16 -15 -23 9 -6 6 -7 -9 -4 -13 3 -23 0 -23 -6 0 -6 -3 -8
-6 -4 -9 9 -66 -21 -87 -47 -10 -11 -16 -15 -12 -7 5 9 0 8 -18 -4 -33 -21
-40 -41 -15 -42 11 -1 35 14 54 33 18 20 38 33 44 29 5 -3 10 -2 10 2 0 5 20
15 44 22 25 7 46 17 48 23 2 5 22 -9 45 -32 23 -23 47 -39 53 -35 6 4 9 1 8
-7 -2 -7 5 -13 14 -13 9 0 20 -4 25 -9 5 -5 2 -6 -6 -1 -9 5 -12 4 -7 -3 5 -8
51 -12 142 -12 121 0 134 2 134 18 2 47 55 153 110 215 19 22 34 42 33 43 -2
2 0 4 3 3 3 -1 18 10 32 23 24 22 72 36 72 21 0 -16 -37 -110 -47 -121 -7 -7
-13 -10 -13 -5 0 11 -39 -54 -50 -83 -7 -18 -6 -22 5 -17 8 3 15 9 15 14 0 5
7 9 15 9 8 0 15 6 15 13 0 7 9 18 19 24 13 8 18 19 14 33 -3 12 0 20 7 20 6 0
31 16 54 35 24 19 46 35 50 35 4 0 20 16 37 35 38 43 62 47 53 8 -9 -46 -36
-105 -71 -157 -18 -26 -33 -53 -33 -58 0 -5 -8 -22 -18 -36 -11 -15 -21 -37
-25 -49 l-5 -23 493 0 493 0 1 406 c1 402 1 405 -19 399 -13 -4 -20 -2 -20 6
0 7 -8 5 -22 -7 l-23 -19 18 22 c10 11 29 24 43 27 l24 6 -1 598 c0 529 -2
595 -15 576 -14 -20 -21 -21 -162 -16 -82 3 -150 9 -153 15 -4 5 -5 58 -4 116
4 116 6 130 14 129 19 -2 22 4 10 20 -12 15 -11 15 8 -1 12 -11 23 -14 27 -8
6 9 27 105 29 129 0 12 10 16 32 13 6 0 12 13 13 31 4 53 14 47 11 -8 -3 -55
4 -73 25 -70 23 3 47 28 41 43 -7 19 5 64 16 58 4 -3 18 8 30 24 12 17 26 28
31 25 5 -3 18 2 29 12 16 14 19 31 19 103 0 51 -4 81 -9 73 -16 -25 -21 13 -5
43 17 34 18 82 2 88 -10 4 -10 6 0 6 6 1 12 12 12 26 0 17 -4 23 -15 19 -8 -4
-12 -10 -9 -15 3 -5 -1 -12 -9 -15 -8 -3 -38 -40 -67 -82 -29 -42 -54 -78 -55
-80 -2 -2 -13 -5 -27 -7 -18 -4 -24 0 -25 15 -1 11 4 19 10 17 7 -1 11 4 9 12
-1 7 9 28 23 47 14 19 22 34 18 34 -4 0 -1 5 7 10 8 5 16 14 16 20 1 5 2 15 3
21 0 5 6 7 13 3 7 -5 8 -3 3 6 -6 10 -12 7 -26 -11 -10 -13 -19 -28 -19 -32 0
-5 -6 -5 -12 -1 -9 5 -8 2 1 -9 12 -15 12 -17 -1 -12 -8 3 -21 -2 -29 -11 -12
-15 -12 -17 0 -9 8 4 -7 -14 -33 -42 -34 -36 -53 -49 -67 -46 -24 7 -24 18 -1
35 10 7 45 51 77 98 91 134 126 183 155 215 27 30 38 75 18 75 -6 0 -8 -11 -3
-27z m-160 -438 c11 -3 8 -11 -15 -36 -16 -18 -27 -35 -25 -39 2 -4 -2 -7 -10
-7 -8 0 -12 4 -9 9 3 4 -1 8 -8 9 -7 0 -3 4 9 9 16 6 21 16 19 38 -1 21 2 29
11 26 7 -2 20 -6 28 -9z m40 -42 c-44 -68 -109 -141 -123 -136 -10 4 -4 15 21
42 18 20 51 57 72 84 40 50 60 57 30 10z m135 -3 c0 -5 -4 -10 -10 -10 -5 0
-10 5 -10 10 0 6 5 10 10 10 6 0 10 -4 10 -10z m-52 -55 c1 -13 -3 -27 -8 -30
-16 -10 -24 24 -10 40 16 19 15 19 18 -10z m-156 -117 c-7 -7 -12 -8 -12 -2 0
14 12 26 19 19 2 -3 -1 -11 -7 -17z m-154 -465 c14 13 21 14 30 5 9 -9 6 -14
-11 -23 -17 -9 -28 -9 -50 2 -16 8 -25 19 -21 25 5 7 12 5 20 -7 13 -17 15
-17 32 -2z m-1188 -1783 c0 -5 -5 -10 -11 -10 -5 0 -7 5 -4 10 3 6 8 10 11 10
2 0 4 -4 4 -10z m2 -29 c8 11 9 11 6 1 -4 -16 -22 -18 -24 -2 -2 7 -1 6 3 -1
4 -8 8 -7 15 2z m-35 -26 c0 -8 -4 -12 -9 -9 -5 3 -6 10 -3 15 9 13 12 11 12
-6z m107 -83 c3 -5 -1 -9 -9 -9 -8 0 -12 4 -9 9 7 10 11 10 18 0z"/>
<path d="M3490 3035 c-1 -5 -2 -13 -1 -17 0 -5 -3 -8 -8 -8 -5 0 -12 -8 -15
-17 -3 -10 -22 -35 -42 -56 -20 -21 -34 -41 -31 -44 3 -2 12 4 19 16 7 12 17
21 23 22 21 1 67 68 62 91 -2 13 -5 19 -7 13z"/>
<path d="M1197 2829 c7 -7 15 -10 18 -7 3 3 -2 9 -12 12 -14 6 -15 5 -6 -5z"/>
<path d="M1041 2784 c0 -11 3 -14 6 -6 3 7 2 16 -1 19 -3 4 -6 -2 -5 -13z"/>
<path d="M1338 2683 c6 -2 12 -11 12 -19 0 -8 5 -14 11 -14 5 0 7 5 4 10 -3 6
2 10 11 10 27 0 7 13 -23 16 -16 1 -22 0 -15 -3z"/>
<path d="M1435 2670 c-16 -4 -22 -8 -13 -9 12 -1 15 -6 11 -17 -5 -13 0 -15
26 -12 19 2 35 -3 40 -11 5 -7 15 -10 22 -7 8 4 6 1 -4 -7 -15 -13 -16 -15 -2
-21 8 -3 15 -1 15 4 0 6 12 10 28 10 18 0 23 3 14 9 -10 6 -10 10 2 20 13 11
13 15 -4 34 -11 11 -23 17 -27 14 -4 -4 -1 -13 5 -19 7 -7 12 -17 12 -22 0 -8
-3 -8 -8 -1 -11 17 -60 45 -74 44 -7 -1 -26 -5 -43 -9z"/>
<path d="M3015 2440 c20 -23 29 -21 19 4 -3 9 -13 16 -22 16 -13 0 -12 -3 3
-20z"/>
<path d="M2080 2100 c0 -5 7 -10 15 -10 8 0 15 5 15 10 0 6 -7 10 -15 10 -8 0
-15 -4 -15 -10z"/>
<path d="M2605 1980 c3 -5 -1 -10 -11 -10 -13 0 -15 -7 -10 -37 3 -21 7 -45 7
-53 1 -8 10 -26 21 -39 19 -25 25 -81 8 -81 -5 0 -10 -7 -10 -15 0 -8 -3 -14
-7 -14 -22 4 -33 -3 -32 -18 0 -11 3 -13 6 -5 2 6 8 12 13 12 4 0 3 -11 -3
-24 -8 -16 -14 -20 -19 -13 -4 7 -10 2 -16 -13 -6 -16 -6 -29 0 -37 6 -7 2
-16 -11 -25 -11 -8 -26 -31 -33 -51 -12 -35 -149 -197 -266 -314 -28 -29 -46
-53 -40 -53 9 0 8 -4 -2 -11 -12 -8 -11 -9 5 -7 13 3 19 10 17 22 -3 14 0 16
17 7 16 -9 22 -7 33 7 19 26 45 33 59 16 9 -11 8 -19 -7 -37 -11 -12 -23 -25
-29 -29 -5 -4 -6 -11 -1 -15 5 -4 11 -2 13 5 3 6 11 12 19 12 8 0 14 7 14 15
0 8 9 15 20 15 22 0 62 49 67 81 2 12 17 38 33 59 17 21 30 40 30 43 0 3 16
29 35 58 19 30 35 59 35 66 0 7 17 30 38 51 22 20 44 54 51 74 14 44 36 65 47
47 5 -8 3 -9 -6 -4 -9 6 -11 4 -6 -4 5 -7 11 -10 14 -6 9 9 13 47 4 41 -5 -3
-7 14 -5 37 3 35 -4 58 -37 124 -22 44 -40 92 -40 107 0 14 -5 26 -11 26 -5 0
-7 -4 -4 -10z"/>
<path d="M2429 1913 c-29 -33 -30 -34 -4 -13 48 41 57 50 48 50 -5 0 -25 -17
-44 -37z"/>
<path d="M2560 1835 c0 -5 5 -17 10 -25 5 -8 10 -10 10 -5 0 6 -5 17 -10 25
-5 8 -10 11 -10 5z"/>
<path d="M2726 1783 c-6 -14 -5 -15 5 -6 7 7 10 15 7 18 -3 3 -9 -2 -12 -12z"/>
<path d="M3161 1764 c-2 -75 -12 -106 -32 -101 -18 5 -19 -5 -19 -183 0 -175
9 -241 24 -170 3 18 12 30 21 30 14 0 20 -12 15 -35 -1 -5 4 -5 10 2 9 9 10
39 1 128 -6 65 -16 126 -21 136 -13 23 -14 60 -1 40 7 -10 12 -8 24 9 11 16
14 37 10 83 -3 34 -9 64 -13 67 -4 3 -10 12 -13 20 -3 8 -6 -4 -6 -26z m-14
-216 c-3 -8 -6 -5 -6 6 -1 11 2 17 5 13 3 -3 4 -12 1 -19z"/>
<path d="M2735 1760 c-4 -7 1 -21 14 -33 24 -24 27 -14 7 22 -9 17 -15 20 -21
11z"/>
<path d="M2806 1659 c17 -19 34 -42 37 -51 7 -19 27 -25 27 -9 0 15 -50 70
-74 82 -16 9 -14 4 10 -22z"/>
<path d="M2470 1234 c0 -22 24 -44 35 -32 8 8 -7 47 -21 52 -10 4 -14 -2 -14
-20z"/>
<path d="M2510 1240 c0 -5 7 -10 16 -10 8 0 12 5 9 10 -3 6 -10 10 -16 10 -5
0 -9 -4 -9 -10z"/>
<path d="M2421 1194 c0 -11 3 -14 6 -6 3 7 2 16 -1 19 -3 4 -6 -2 -5 -13z"/>
<path d="M2448 1183 c7 -3 16 -2 19 1 4 3 -2 6 -13 5 -11 0 -14 -3 -6 -6z"/>
<path d="M2151 1163 c-12 -13 -12 -16 0 -24 19 -12 25 -11 37 4 17 20 -19 39
-37 20z"/>
<path d="M2269 1128 c-7 -23 -4 -35 7 -35 9 0 11 4 4 12 -5 7 -7 15 -3 18 3 4
3 7 0 7 -4 0 -7 -1 -8 -2z"/>
<path d="M3170 1077 c0 -16 12 -31 26 -34 17 -3 5 34 -12 41 -8 3 -14 0 -14
-7z"/>
<path d="M2222 1050 c6 -18 30 -20 34 -2 1 7 0 8 -3 2 -3 -7 -10 -7 -21 2 -13
11 -14 11 -10 -2z"/>
<path d="M2430 980 c0 -5 5 -10 11 -10 5 0 7 5 4 10 -3 6 -8 10 -11 10 -2 0
-4 -4 -4 -10z"/>
<path d="M1770 461 c0 -6 4 -13 10 -16 6 -3 7 1 4 9 -7 18 -14 21 -14 7z"/>
<path d="M1772 410 c0 -14 2 -19 5 -12 2 6 2 18 0 25 -3 6 -5 1 -5 -13z"/>
<path d="M1785 382 c-6 -4 -21 -20 -34 -37 -12 -16 -27 -30 -32 -30 -12 0 -13
-19 0 -23 5 -2 15 7 22 20 7 13 15 25 18 28 3 3 15 15 25 28 19 22 20 28 1 14z"/>
<path d="M1681 277 c-9 -12 -8 -16 3 -20 19 -7 32 11 19 24 -6 6 -14 5 -22 -4z"/>
<path d="M1605 190 c-3 -6 1 -7 9 -4 18 7 21 14 7 14 -6 0 -13 -4 -16 -10z"/>
<path d="M1628 180 c-14 -13 -15 -17 -3 -17 8 0 17 7 20 15 8 21 3 22 -17 2z"/>
<path d="M1594 133 c4 -41 -6 -58 -17 -30 -4 7 -6 6 -6 -4 -1 -9 9 -19 20 -22
20 -5 21 -3 16 29 -3 19 -2 32 3 29 5 -3 11 -1 15 5 3 5 0 10 -9 10 -8 0 -17
6 -20 13 -3 6 -4 -7 -2 -30z"/>
<path d="M1386 13 c-6 -14 -5 -15 5 -6 7 7 10 15 7 18 -3 3 -9 -2 -12 -12z"/>
</g>
</svg>
